<?xml version="1.0" encoding="UTF-8"?>
<svg width="431px" height="862px" viewBox="0 0 431 862" version="1.1" xmlns="http://www.w3.org/2000/svg" xmlns:xlink="http://www.w3.org/1999/xlink">
    <!-- Generator: Sketch 54.1 (76490) - https://sketchapp.com -->
    <title>iPhone X-XS</title>
    <desc>Created with Sketch.</desc>
    <g id="iPhone-X-XS" stroke="none" stroke-width="1" fill="none" fill-rule="evenodd">
        <path d="M64,0 L367,0 C401.241654,-6.28280125e-15 429,27.7261806 429,61.9281576 L429,800.071842 C429,834.273819 401.241654,862 367,862 L64,862 C29.7583455,862 2,834.273819 2,800.071842 L2,61.9281576 C2,27.7261806 29.7583455,6.28280125e-15 64,0 Z M65,6.99188876 C34.072054,6.99188876 9,32.0348906 9,62.9269988 L9,799.073001 C9,829.965109 34.072054,855.008111 65,855.008111 L366,855.008111 C396.927946,855.008111 422,829.965109 422,799.073001 L422,62.9269988 C422,32.0348906 396.927946,6.99188876 366,6.99188876 L65,6.99188876 Z" id="Outer-frame" fill="#666666"></path>
        <path d="M134.039054,56 L296.960946,56 C309.663495,56 319.960946,45.7025492 319.960946,33 C319.960946,32.9914746 319.95879,31.7145826 319.954479,29.1693241 L319.954478,29.1693241 C319.954323,29.0774678 319.970341,28.9863015 320.001801,28.9000001 C320.001801,28.9000001 320.001801,28.9000001 320.001801,28.9000001 C320.667785,27.0730117 322.211271,25.6761683 324.108167,25.216238 L325,25 L106,25 L106.891833,25.216238 C108.77962,25.6739597 110.333298,27.0860849 111.004395,28.9000001 C111.019265,28.9401942 111.033048,28.9860004 111.045744,29.0374188 L111.039088,32.9609787 C111.039054,45.7025492 121.336505,56 134.039054,56 Z M65,7 L366,7 C396.927946,7 422,32.072054 422,63 L422,800 C422,830.927946 396.927946,856 366,856 L65,856 C34.072054,856 9,830.927946 9,800 L9,63 C9,32.072054 34.072054,7 65,7 Z M68,25 C45.90861,25 28,42.90861 28,65 L28,797 C28,819.09139 45.90861,837 68,837 L363,837 C385.09139,837 403,819.09139 403,797 L403,65 C403,42.90861 385.09139,25 363,25 L68,25 Z" id="Inner-frame" fill="#000000"></path>
        <g id="Buttons" transform="translate(0.000000, 116.000000)" fill="#333333">
            <path d="M1,0 L2,0 L2,34 L1,34 C0.44771525,34 6.76353751e-17,33.5522847 0,33 L0,1 C-6.76353751e-17,0.44771525 0.44771525,1.01453063e-16 1,0 Z" id="Rectangle"></path>
            <path d="M1,62 L2,62 L2,124 L1,124 C0.44771525,124 6.76353751e-17,123.552285 0,123 L0,63 C-6.76353751e-17,62.4477153 0.44771525,62 1,62 Z" id="Rectangle"></path>
            <path d="M1,141 L2,141 L2,203 L1,203 C0.44771525,203 6.76353751e-17,202.552285 0,202 L0,142 C-6.76353751e-17,141.447715 0.44771525,141 1,141 Z" id="Rectangle"></path>
            <path d="M429,83 L430,83 C430.552285,83 431,83.4477153 431,84 L431,181 C431,181.552285 430.552285,182 430,182 L429,182 L429,83 Z" id="Rectangle"></path>
        </g>
        <g id="Details" transform="translate(190.000000, 28.000000)" fill="#181818">
            <rect id="Microphone" x="0" y="2" width="50" height="6" rx="3"></rect>
            <circle id="Camera" cx="70.5" cy="5.5" r="5.5"></circle>
        </g>
    </g>
</svg>